<svg id="Layer_1" height="512" viewBox="0 0 90 90" width="512" xmlns="http://www.w3.org/2000/svg" data-name="Layer 1"><path d="m22.421 73.461a1 1 0 0 1 -.984-1.18l2.434-13.3c-7.555-4.566-11.871-11.255-11.871-18.442 0-13.233 14.8-24 33-24s33 10.767 33 24-14.8 24-33 24a40.4 40.4 0 0 1 -10.9-1.422l-11 10.083a1 1 0 0 1 -.679.261zm22.579-54.922c-17.093 0-31 9.869-31 22 0 6.643 4.184 12.866 11.479 17.073a1 1 0 0 1 .485 1.046l-2.023 11.054 9.218-8.448a.994.994 0 0 1 .961-.221 38.161 38.161 0 0 0 10.88 1.496c17.093 0 31-9.869 31-22s-13.907-22-31-22z"/><path d="m48.08 52.514a1 1 0 0 1 -.4-1.918 19.177 19.177 0 0 0 3.643-2.211 8.954 8.954 0 0 0 3.438-4.662 7.621 7.621 0 1 1 8.739-7.539v.92a15.433 15.433 0 0 1 -15.42 15.41zm7.8-21.951a5.621 5.621 0 1 0 0 11.241 1 1 0 0 1 1 1.022c-.052 2.358-1.372 4.675-3.824 6.733a13.434 13.434 0 0 0 8.444-12.459v-.92a5.627 5.627 0 0 0 -5.621-5.617z"/><path d="m27.5 52.514a1 1 0 0 1 -.4-1.918 19.211 19.211 0 0 0 3.643-2.211 8.958 8.958 0 0 0 3.438-4.662 7.621 7.621 0 1 1 8.736-7.539v.92a15.432 15.432 0 0 1 -15.417 15.41zm7.8-21.951a5.621 5.621 0 1 0 0 11.241 1 1 0 0 1 1 1.022c-.052 2.358-1.371 4.675-3.824 6.733a13.435 13.435 0 0 0 8.444-12.459v-.92a5.627 5.627 0 0 0 -5.62-5.617z"/></svg>